{"title":"Burn.Notice.S07E11.HDTV.XviD-ALPHA","uid":8841221,"size":380000858,"categoryP":"video","categoryS":"tv_shows","magnet":"?xt=urn:btih:a131c89148a9ba8cdcd98a9a9542e4afcdb0895a&amp;dn=Burn.Notice.S07E11.HDTV.XviD-ALPHA&amp;tr=udp%3A%2F%2Ftracker.openbittorrent.com%3A80&amp;tr=udp%3A%2F%2Fopen.demonii.com%3A1337&amp;tr=udp%3A%2F%2Ftracker.coppersurfer.tk%3A6969&amp;tr=udp%3A%2F%2Fexodus.desync.com%3A6969","seeders":2,"leechers":0,"uploader":null,"files":2,"time":1377250639,"description":"General\nComplete name                            : Burn.Notice.S07E11.HDTV.XviD-ALPHA.avi\nFormat                                   : AVI\nFormat/Info                              : Audio Video Interleave\nFile size                                : 362 MiB\nDuration                                 : 42mn 1s\nOverall bit rate                         : 1 206 Kbps\n\nVideo\nID                                       : 0\nFormat                                   : MPEG-4 Visual\nFormat profile                           : Advanced Simple@L4\nFormat settings, BVOP                    : 2\nFormat settings, QPel                    : No\nFormat settings, GMC                     : No warppoints\nFormat settings, Matrix                  : Default (H.263)\nCodec ID                                 : DIVX\nCodec ID/Info                            : Project Mayo\nCodec ID/Hint                            : DivX 4\nDuration                                 : 42mn 1s\nBit rate                                 : 1 000 Kbps\nWidth                                    : 640 pixels\nHeight                                   : 356 pixels\nDisplay aspect ratio                     : 16:9\nFrame rate                               : 23.976 fps\nColor space                              : YUV\nChroma subsampling                       : 4:2:0\nBit depth                                : 8 bits\nScan type                                : Progressive\nCompression mode                         : Lossy\nBits/(Pixel*Frame)                       : 0.183\nStream size                              : 301 MiB (83%)\nWriting library                          : XviD 64\n\nAudio\nID                                       : 1\nFormat                                   : MPEG Audio\nFormat version                           : Version 1\nFormat profile                           : Layer 3\nCodec ID                                 : 55\nCodec ID/Hint                            : MP3\nDuration                                 : 42mn 1s\nSource duration                          : 42mn 1s\nBit rate mode                            : Constant\nBit rate                                 : 192 Kbps\nChannel(s)                               : 2 channels\nSampling rate                            : 48.0 KHz\nCompression mode                         : Lossy\nStream size                              : 57.7 MiB (16%)\nAlignment                                : Aligned on interleaves\nInterleave, duration                     : 24 ms (0.58 video frame)","torrent":{"xt":"urn:btih:a131c89148a9ba8cdcd98a9a9542e4afcdb0895a","amp;dn":"Burn.Notice.S07E11.HDTV.XviD-ALPHA","amp;tr":["udp%3A%2F%2Ftracker.openbittorrent.com%3A80","udp%3A%2F%2Fopen.demonii.com%3A1337","udp%3A%2F%2Ftracker.coppersurfer.tk%3A6969","udp%3A%2F%2Fexodus.desync.com%3A6969"],"infoHash":"a131c89148a9ba8cdcd98a9a9542e4afcdb0895a","infoHashBuffer":{"type":"Buffer","data":[161,49,200,145,72,169,186,140,220,217,138,154,149,66,228,175,205,176,137,90]},"announce":[],"urlList":[]}}